<?xml version="1.0" encoding="UTF-8"?>
<svg width="24" height="24" viewBox="0 0 24 24" fill="none" xmlns="http://www.w3.org/2000/svg">
    <path d="M21 6H3C1.9 6 1 6.9 1 8V16C1 17.1 1.9 18 3 18H21C22.1 18 23 17.1 23 16V8C23 6.9 22.1 6 21 6ZM10 12H8V14H6V12H4V10H6V8H8V10H10V12ZM15 15C14.17 15 13.5 14.33 13.5 13.5C13.5 12.67 14.17 12 15 12C15.83 12 16.5 12.67 16.5 13.5C16.5 14.33 15.83 15 15 15ZM19 11C18.17 11 17.5 10.33 17.5 9.5C17.5 8.67 18.17 8 19 8C19.83 8 20.5 8.67 20.5 9.5C20.5 10.33 19.83 11 19 11Z" fill="#2196f3"/>
</svg> 