<?xml version="1.0" encoding="UTF-8"?>
<svg width="24" height="24" viewBox="0 0 24 24" fill="none" xmlns="http://www.w3.org/2000/svg">
    <path d="M16.48 10.41C15.91 10.04 15.23 9.85 14.54 9.85C13.85 9.85 13.17 10.04 12.6 10.41L12 10.82L11.4 10.41C10.83 10.04 10.15 9.85 9.46 9.85C8.77 9.85 8.09 10.04 7.52 10.41C6.38 11.16 5.71 12.48 5.71 13.91C5.71 15.34 6.38 16.66 7.52 17.41L12 20.29L16.48 17.41C17.62 16.66 18.29 15.34 18.29 13.91C18.29 12.48 17.62 11.16 16.48 10.41Z" fill="#2196f3"/>
    <path d="M20 2H4C2.9 2 2 2.9 2 4V20C2 21.1 2.9 22 4 22H20C21.1 22 22 21.1 22 20V4C22 2.9 21.1 2 20 2ZM20 20H4V4H20V20Z" fill="#2196f3"/>
</svg> 